<?xml version="1.0" encoding="utf-8"?><svg xmlns="http://www.w3.org/2000/svg" xmlns:xlink="http://www.w3.org/1999/xlink" width="1366" height="629" preserveAspectRatio="xMidYMid" viewBox="0 0 1366 629" style="z-index:1;margin-right:-2px;display:block;background-color:rgb(255, 255, 255);animation-play-state:paused" ><g transform="translate(683,314.5) scale(1,1) translate(-683,-314.5)" style="transform:matrix(1, 0, 0, 1, 0, 0);animation-play-state:paused" ><linearGradient id="lg-0.32504129058160003" x1="0" x2="1" y1="0" y2="0" style="animation-play-state:paused" ><stop stop-color="#ff00ff" offset="0" style="animation-play-state:paused" ></stop>

  
<stop stop-color="#00ffff" offset="1" style="animation-play-state:paused" ></stop></linearGradient>
<path d="M 0 0 L 0 583.939 Q 136.6 545.251 273.2 521.214 T 546.4 400.974 T 819.6 387.689 T 1092.8 297.073 T 1366 266.426 L 1366 0 Z" fill="url(#lg-0.32504129058160003)" opacity="0.4" style="opacity:0.4;animation-play-state:paused" ></path>
<path d="M 0 0 L 0 547.043 Q 136.6 542.551 273.2 515.858 T 546.4 454.97 T 819.6 365.943 T 1092.8 316.544 T 1366 245.671 L 1366 0 Z" fill="url(#lg-0.32504129058160003)" opacity="0.4" style="opacity:0.4;animation-play-state:paused" ></path>
<path d="M 0 0 L 0 569.846 Q 136.6 581.14 273.2 543.08 T 546.4 447.86 T 819.6 429.369 T 1092.8 361.557 T 1366 328.32 L 1366 0 Z" fill="url(#lg-0.32504129058160003)" opacity="0.4" style="opacity:0.4;animation-play-state:paused" ></path>
<path d="M 0 0 L 0 554.898 Q 136.6 544.013 273.2 502.124 T 546.4 489.186 T 819.6 380.095 T 1092.8 363.248 T 1366 305.253 L 1366 0 Z" fill="url(#lg-0.32504129058160003)" opacity="0.4" style="opacity:0.4;animation-play-state:paused" ></path>
<path d="M 0 0 L 0 605.12 Q 136.6 568.991 273.2 536.491 T 546.4 452.487 T 819.6 393.297 T 1092.8 271.427 T 1366 273.746 L 1366 0 Z" fill="url(#lg-0.32504129058160003)" opacity="0.4" style="opacity:0.4;animation-play-state:paused" ></path></g></svg>