<?xml version="1.0" encoding="utf-8"?><svg xmlns="http://www.w3.org/2000/svg" xmlns:xlink="http://www.w3.org/1999/xlink" width="1366" height="629" preserveAspectRatio="xMidYMid" viewBox="0 0 1366 629" style="z-index:1;margin-right:-2px;display:block;background-color:rgb(153, 153, 153);animation-play-state:paused" ><g transform="translate(683,314.5) scale(1,1) translate(-683,-314.5)" style="transform:matrix(1, 0, 0, 1, 0, 0);animation-play-state:paused" ><linearGradient id="lg-0.9741548433762022" x1="0" x2="0.5" y1="0" y2="0" gradientUnits="objectBoundingBox" style="animation-play-state:paused" ><stop stop-color="#ffef00" offset="0" style="animation-play-state:paused" ></stop>

  
<stop stop-color="#ff9500" offset="1" style="animation-play-state:paused" ></stop></linearGradient>
<path d="M -650.545 629 Q -545.56 490.66 -551.848 342.061 T -265.419 83.2088 T 180.705 -122.217 T 742.853 -254.109 T 1366 -299.555 T 1989.15 -254.109 T 2551.3 -122.217 T 2997.42 83.2088 T 3283.85 342.061 T 3382.54 629" fill="url(#lg-0.9741548433762022)" opacity="0.9" style="opacity:0.9;animation-play-state:paused" ></path>
<path d="M -448.89 629 Q -359.019 488.295 -339.439 343.174 T -24.2868 91.8224 T 458.555 -94.7374 T 1050.85 -194.004 T 1681.15 -194.004 T 2273.45 -94.7374 T 2756.29 91.8224 T 3071.44 343.174 T 3180.89 629" fill="url(#lg-0.9741548433762022)" opacity="0.9" style="opacity:0.9;animation-play-state:paused" ></path>
<path d="M -247.236 629 Q -176.081 491.216 -124.436 344.726 T 225.27 103.73 T 748.641 -57.2987 T 1366 -113.844 T 1983.36 -57.2987 T 2506.73 103.73 T 2856.44 344.726 T 2979.24 629" fill="url(#lg-0.9741548433762022)" opacity="0.9" style="opacity:0.9;animation-play-state:paused" ></path>
<path d="M -45.5815 629 Q 37.3109 484.666 94.209 346.98 T 485.893 120.818 T 1051.89 -4.69226 T 1680.11 -4.69226 T 2246.11 120.818 T 2637.79 346.98 T 2777.58 629" fill="url(#lg-0.9741548433762022)" opacity="0.9" style="opacity:0.9;animation-play-state:paused" ></path>
<path d="M 156.073 629 Q 255.702 488.754 318.172 350.433 T 761.036 146.508 T 1366 71.8667 T 1970.96 146.508 T 2413.83 350.433 T 2575.93 629" fill="url(#lg-0.9741548433762022)" opacity="0.9" style="opacity:0.9;animation-play-state:paused" ></path>
<path d="M 357.728 629 Q 455.994 486.564 550.29 356.104 T 1054.43 187.446 T 1677.57 187.446 T 2181.71 356.104 T 2374.27 629" fill="url(#lg-0.9741548433762022)" opacity="0.9" style="opacity:0.9;animation-play-state:paused" ></path>
<path d="M 559.382 629 Q 645.631 495.152 795.635 366.365 T 1366 257.578 T 1936.36 366.365 T 2172.62 629" fill="url(#lg-0.9741548433762022)" opacity="0.9" style="opacity:0.9;animation-play-state:paused" ></path>
<path d="M 761.036 629 Q 849.318 491.421 1063.52 387.754 T 1668.48 387.754 T 1970.96 629" fill="url(#lg-0.9741548433762022)" opacity="0.9" style="opacity:0.9;animation-play-state:paused" ></path>
<path d="M 962.691 629 Q 1095.59 503.228 1366 443.289 T 1769.31 629" fill="url(#lg-0.9741548433762022)" opacity="0.9" style="opacity:0.9;animation-play-state:paused" ></path>
<path d="M 1164.35 629 Q 1366 537.821 1567.65 629" fill="url(#lg-0.9741548433762022)" opacity="0.9" style="opacity:0.9;animation-play-state:paused" ></path></g></svg>